<svg xmlns="http://www.w3.org/2000/svg" x="0px" y="0px" width="100" height="100" viewBox="0 0 48 48">
<path fill="#4CAF50" d="M44,24c0,11.045-8.955,20-20,20S4,35.045,4,24S12.955,4,24,4S44,12.955,44,24z"></path><path fill="none" stroke="#fff" stroke-miterlimit="10" stroke-width="3" d="M31,20v-3c0-2.209-1.791-4-4-4h-6c-2.209,0-4,1.791-4,4v11c0,2.209,1.791,4,4,4h6c2.209,0,4-1.791,4-4v-3"></path><path fill="none" stroke="#fff" stroke-miterlimit="10" stroke-width="3" d="M17,20v-3c0-2.209,1.791-4,4-4h0c2.209,0,4,1.791,4,4v3"></path>
</svg> 