<svg width="800px" height="800px" viewBox="0 0 24 24" fill="none" xmlns="http://www.w3.org/2000/svg"><path d="M14.5 6.5C15.2375 6.64167 15.9625 6.85833 16.65 7.15C17.3375 7.44167 17.975 7.8 18.525 8.25C19.0875 8.7 19.55 9.225 19.9 9.85C20.25 10.475 20.5 11.1333 20.65 11.85M14.5 2C15.9 2.2 17.225 2.65 18.425 3.4C19.625 4.15 20.65 5.125 21.45 6.4C22.25 7.675 22.75 9.05 22.95 10.55C23.15 12.05 23.05 13.55 22.65 15C22.25 16.45 21.55 17.775 20.5 18.9C19.45 20.025 18.15 20.9 16.65 21.45C15.15 22 13.55 22.2 12 22C10.75 21.85 9.55 21.45 8.45 20.85C7.35 20.25 6.4 19.45 5.65 18.5C4.9 17.55 4.35 16.45 4 15.25C3.65 14.05 3.55 12.75 3.75 11.5C3.95 10.25 4.4 9 5.1 7.9C5.8 6.8 6.75 5.85 7.9 5.1C9.05 4.35 10.35 3.85 11.75 3.65" stroke="#000000" stroke-width="1.5" stroke-linecap="round" stroke-linejoin="round"/></svg> 